<svg id="visual" viewBox="0 0 1000 210" width="1000" height="210" xmlns="http://www.w3.org/2000/svg" xmlns:xlink="http://www.w3.org/1999/xlink" version="1.1"><path d="M0 144L20.8 135.2C41.7 126.3 83.3 108.7 125 109.2C166.7 109.7 208.3 128.3 250 125.7C291.7 123 333.3 99 375 88.2C416.7 77.3 458.3 79.7 500 86C541.7 92.3 583.3 102.7 625 107.3C666.7 112 708.3 111 750 104.2C791.7 97.3 833.3 84.7 875 87.3C916.7 90 958.3 108 979.2 117L1000 126L1000 0L979.2 0C958.3 0 916.7 0 875 0C833.3 0 791.7 0 750 0C708.3 0 666.7 0 625 0C583.3 0 541.7 0 500 0C458.3 0 416.7 0 375 0C333.3 0 291.7 0 250 0C208.3 0 166.7 0 125 0C83.3 0 41.7 0 20.8 0L0 0Z" fill="#9beb82" stroke-linecap="round" stroke-linejoin="miter"></path></svg>