<svg id="visual" viewBox="0 0 2000 200" width="2000" height="200" xmlns="http://www.w3.org/2000/svg" xmlns:xlink="http://www.w3.org/1999/xlink" version="1.1"><path d="M0 99L18.5 97C37 95 74 91 111 91.5C148 92 185 97 222 103.8C259 110.7 296 119.3 333 114.2C370 109 407 90 444.2 87.3C481.3 84.7 518.7 98.3 555.8 98.2C593 98 630 84 667 79.3C704 74.7 741 79.3 778 86C815 92.7 852 101.3 889 105.7C926 110 963 110 1000 107.3C1037 104.7 1074 99.3 1111 94C1148 88.7 1185 83.3 1222 82.3C1259 81.3 1296 84.7 1333 92.5C1370 100.3 1407 112.7 1444.2 112.3C1481.3 112 1518.7 99 1555.8 90.2C1593 81.3 1630 76.7 1667 82.3C1704 88 1741 104 1778 107.2C1815 110.3 1852 100.7 1889 101C1926 101.3 1963 111.7 1981.5 116.8L2000 122L2000 201L1981.5 201C1963 201 1926 201 1889 201C1852 201 1815 201 1778 201C1741 201 1704 201 1667 201C1630 201 1593 201 1555.8 201C1518.7 201 1481.3 201 1444.2 201C1407 201 1370 201 1333 201C1296 201 1259 201 1222 201C1185 201 1148 201 1111 201C1074 201 1037 201 1000 201C963 201 926 201 889 201C852 201 815 201 778 201C741 201 704 201 667 201C630 201 593 201 555.8 201C518.7 201 481.3 201 444.2 201C407 201 370 201 333 201C296 201 259 201 222 201C185 201 148 201 111 201C74 201 37 201 18.5 201L0 201Z" fill="#0b6e4f" stroke-linecap="round" stroke-linejoin="miter"></path></svg>