<svg id="visual" viewBox="0 0 1000 210" width="1000" height="210" xmlns="http://www.w3.org/2000/svg" xmlns:xlink="http://www.w3.org/1999/xlink" version="1.1"><path d="M0 81L20.8 78.5C41.7 76 83.3 71 125 68.2C166.7 65.3 208.3 64.7 250 76.2C291.7 87.7 333.3 111.3 375 118.8C416.7 126.3 458.3 117.7 500 105.8C541.7 94 583.3 79 625 84.3C666.7 89.7 708.3 115.3 750 124.5C791.7 133.7 833.3 126.3 875 120.2C916.7 114 958.3 109 979.2 106.5L1000 104L1000 0L979.2 0C958.3 0 916.7 0 875 0C833.3 0 791.7 0 750 0C708.3 0 666.7 0 625 0C583.3 0 541.7 0 500 0C458.3 0 416.7 0 375 0C333.3 0 291.7 0 250 0C208.3 0 166.7 0 125 0C83.3 0 41.7 0 20.8 0L0 0Z" fill="#bbffbd" stroke-linecap="round" stroke-linejoin="miter"></path></svg>