<svg id="visual" viewBox="0 0 1000 210" width="1000" height="210" xmlns="http://www.w3.org/2000/svg" xmlns:xlink="http://www.w3.org/1999/xlink" version="1.1"><path d="M0 138L23.8 126C47.7 114 95.3 90 143 90.8C190.7 91.7 238.3 117.3 286 123.3C333.7 129.3 381.3 115.7 428.8 104C476.3 92.3 523.7 82.7 571.2 77.8C618.7 73 666.3 73 714 83.8C761.7 94.7 809.3 116.3 857 117.7C904.7 119 952.3 100 976.2 90.5L1000 81L1000 211L976.2 211C952.3 211 904.7 211 857 211C809.3 211 761.7 211 714 211C666.3 211 618.7 211 571.2 211C523.7 211 476.3 211 428.8 211C381.3 211 333.7 211 286 211C238.3 211 190.7 211 143 211C95.3 211 47.7 211 23.8 211L0 211Z" fill="#9beb82" stroke-linecap="round" stroke-linejoin="miter"></path></svg>