<svg id="visual" viewBox="0 0 2000 200" width="2000" height="200" xmlns="http://www.w3.org/2000/svg" xmlns:xlink="http://www.w3.org/1999/xlink" version="1.1"><path d="M0 105L18.5 101.5C37 98 74 91 111 89.5C148 88 185 92 222 90.2C259 88.3 296 80.7 333 82.3C370 84 407 95 444.2 97C481.3 99 518.7 92 555.8 95C593 98 630 111 667 110C704 109 741 94 778 91C815 88 852 97 889 96.2C926 95.3 963 84.7 1000 82.5C1037 80.3 1074 86.7 1111 86.8C1148 87 1185 81 1222 77.7C1259 74.3 1296 73.7 1333 79.3C1370 85 1407 97 1444.2 103.2C1481.3 109.3 1518.7 109.7 1555.8 112.5C1593 115.3 1630 120.7 1667 123.5C1704 126.3 1741 126.7 1778 125.7C1815 124.7 1852 122.3 1889 122.2C1926 122 1963 124 1981.5 125L2000 126L2000 0L1981.5 0C1963 0 1926 0 1889 0C1852 0 1815 0 1778 0C1741 0 1704 0 1667 0C1630 0 1593 0 1555.8 0C1518.7 0 1481.3 0 1444.2 0C1407 0 1370 0 1333 0C1296 0 1259 0 1222 0C1185 0 1148 0 1111 0C1074 0 1037 0 1000 0C963 0 926 0 889 0C852 0 815 0 778 0C741 0 704 0 667 0C630 0 593 0 555.8 0C518.7 0 481.3 0 444.2 0C407 0 370 0 333 0C296 0 259 0 222 0C185 0 148 0 111 0C74 0 37 0 18.5 0L0 0Z" fill="#0b6e4f" stroke-linecap="round" stroke-linejoin="miter"></path></svg>