<svg id="visual" viewBox="0 0 1000 210" width="1000" height="210" xmlns="http://www.w3.org/2000/svg" xmlns:xlink="http://www.w3.org/1999/xlink" version="1.1"><path d="M0 99L20.8 91.3C41.7 83.7 83.3 68.3 125 68C166.7 67.7 208.3 82.3 250 94.3C291.7 106.3 333.3 115.7 375 122.5C416.7 129.3 458.3 133.7 500 124.2C541.7 114.7 583.3 91.3 625 84.8C666.7 78.3 708.3 88.7 750 100.5C791.7 112.3 833.3 125.7 875 131C916.7 136.3 958.3 133.7 979.2 132.3L1000 131L1000 211L979.2 211C958.3 211 916.7 211 875 211C833.3 211 791.7 211 750 211C708.3 211 666.7 211 625 211C583.3 211 541.7 211 500 211C458.3 211 416.7 211 375 211C333.3 211 291.7 211 250 211C208.3 211 166.7 211 125 211C83.3 211 41.7 211 20.8 211L0 211Z" fill="#bbffbd" stroke-linecap="round" stroke-linejoin="miter"></path></svg>