<svg id="visual" viewBox="0 0 1000 210" width="1000" height="210" xmlns="http://www.w3.org/2000/svg" xmlns:xlink="http://www.w3.org/1999/xlink" version="1.1"><path d="M0 93L18.5 95.7C37 98.3 74 103.7 111 106.5C148 109.3 185 109.7 222 110.8C259 112 296 114 333 110C370 106 407 96 444.2 94.7C481.3 93.3 518.7 100.7 555.8 106.8C593 113 630 118 667 114C704 110 741 97 778 90.8C815 84.7 852 85.3 889 90C926 94.7 963 103.3 981.5 107.7L1000 112L1000 211L981.5 211C963 211 926 211 889 211C852 211 815 211 778 211C741 211 704 211 667 211C630 211 593 211 555.8 211C518.7 211 481.3 211 444.2 211C407 211 370 211 333 211C296 211 259 211 222 211C185 211 148 211 111 211C74 211 37 211 18.5 211L0 211Z" fill="#FFFCF7" stroke-linecap="round" stroke-linejoin="miter"></path></svg>