<svg id="visual" viewBox="0 0 1080 1920" width="1080" height="1920" xmlns="http://www.w3.org/2000/svg" xmlns:xlink="http://www.w3.org/1999/xlink" version="1.1"><rect x="0" y="0" width="1080" height="1920" fill="#ffffff"></rect><path d="M0 744L36 721.7C72 699.3 144 654.7 216 686.2C288 717.7 360 825.3 432 813.5C504 801.7 576 670.3 648 658.8C720 647.3 792 755.7 864 747.3C936 739 1008 614 1044 551.5L1080 489L1080 1921L1044 1921C1008 1921 936 1921 864 1921C792 1921 720 1921 648 1921C576 1921 504 1921 432 1921C360 1921 288 1921 216 1921C144 1921 72 1921 36 1921L0 1921Z" fill="#21d375"></path><path d="M0 683L36 717.5C72 752 144 821 216 894.2C288 967.3 360 1044.7 432 1082.8C504 1121 576 1120 648 1040.7C720 961.3 792 803.7 864 744.3C936 685 1008 724 1044 743.5L1080 763L1080 1921L1044 1921C1008 1921 936 1921 864 1921C792 1921 720 1921 648 1921C576 1921 504 1921 432 1921C360 1921 288 1921 216 1921C144 1921 72 1921 36 1921L0 1921Z" fill="#1eca6d"></path><path d="M0 846L36 842.3C72 838.7 144 831.3 216 858.3C288 885.3 360 946.7 432 985.7C504 1024.7 576 1041.3 648 1088.7C720 1136 792 1214 864 1196.8C936 1179.7 1008 1067.3 1044 1011.2L1080 955L1080 1921L1044 1921C1008 1921 936 1921 864 1921C792 1921 720 1921 648 1921C576 1921 504 1921 432 1921C360 1921 288 1921 216 1921C144 1921 72 1921 36 1921L0 1921Z" fill="#1bc264"></path><path d="M0 1079L36 1089.5C72 1100 144 1121 216 1112.8C288 1104.7 360 1067.3 432 1084C504 1100.7 576 1171.3 648 1234C720 1296.7 792 1351.3 864 1374.7C936 1398 1008 1390 1044 1386L1080 1382L1080 1921L1044 1921C1008 1921 936 1921 864 1921C792 1921 720 1921 648 1921C576 1921 504 1921 432 1921C360 1921 288 1921 216 1921C144 1921 72 1921 36 1921L0 1921Z" fill="#17b95c"></path><path d="M0 1282L36 1304.8C72 1327.7 144 1373.3 216 1380.3C288 1387.3 360 1355.7 432 1361.8C504 1368 576 1412 648 1401.3C720 1390.7 792 1325.3 864 1332.2C936 1339 1008 1418 1044 1457.5L1080 1497L1080 1921L1044 1921C1008 1921 936 1921 864 1921C792 1921 720 1921 648 1921C576 1921 504 1921 432 1921C360 1921 288 1921 216 1921C144 1921 72 1921 36 1921L0 1921Z" fill="#13b154"></path><path d="M0 1679L36 1677C72 1675 144 1671 216 1660.3C288 1649.7 360 1632.3 432 1594C504 1555.7 576 1496.3 648 1472.7C720 1449 792 1461 864 1489.7C936 1518.3 1008 1563.7 1044 1586.3L1080 1609L1080 1921L1044 1921C1008 1921 936 1921 864 1921C792 1921 720 1921 648 1921C576 1921 504 1921 432 1921C360 1921 288 1921 216 1921C144 1921 72 1921 36 1921L0 1921Z" fill="#0ea84d"></path><path d="M0 1737L36 1728.8C72 1720.7 144 1704.3 216 1703C288 1701.7 360 1715.3 432 1699.5C504 1683.7 576 1638.3 648 1629.3C720 1620.3 792 1647.7 864 1654.2C936 1660.7 1008 1646.3 1044 1639.2L1080 1632L1080 1921L1044 1921C1008 1921 936 1921 864 1921C792 1921 720 1921 648 1921C576 1921 504 1921 432 1921C360 1921 288 1921 216 1921C144 1921 72 1921 36 1921L0 1921Z" fill="#08a045"></path></svg>