<svg id="visual" viewBox="0 0 1920 1080" width="1920" height="1080" xmlns="http://www.w3.org/2000/svg" xmlns:xlink="http://www.w3.org/1999/xlink" version="1.1"><rect x="0" y="0" width="1920" height="1080" fill="#ffffff"></rect><path d="M0 384L53.3 381.2C106.7 378.3 213.3 372.7 320 390.3C426.7 408 533.3 449 640 462.7C746.7 476.3 853.3 462.7 960 464.8C1066.7 467 1173.3 485 1280 472.7C1386.7 460.3 1493.3 417.7 1600 430.5C1706.7 443.3 1813.3 511.7 1866.7 545.8L1920 580L1920 1081L1866.7 1081C1813.3 1081 1706.7 1081 1600 1081C1493.3 1081 1386.7 1081 1280 1081C1173.3 1081 1066.7 1081 960 1081C853.3 1081 746.7 1081 640 1081C533.3 1081 426.7 1081 320 1081C213.3 1081 106.7 1081 53.3 1081L0 1081Z" fill="#21d375"></path><path d="M0 642L53.3 633.8C106.7 625.7 213.3 609.3 320 579.2C426.7 549 533.3 505 640 486.8C746.7 468.7 853.3 476.3 960 498.3C1066.7 520.3 1173.3 556.7 1280 563C1386.7 569.3 1493.3 545.7 1600 526C1706.7 506.3 1813.3 490.7 1866.7 482.8L1920 475L1920 1081L1866.7 1081C1813.3 1081 1706.7 1081 1600 1081C1493.3 1081 1386.7 1081 1280 1081C1173.3 1081 1066.7 1081 960 1081C853.3 1081 746.7 1081 640 1081C533.3 1081 426.7 1081 320 1081C213.3 1081 106.7 1081 53.3 1081L0 1081Z" fill="#1eca6d"></path><path d="M0 602L53.3 592C106.7 582 213.3 562 320 568.3C426.7 574.7 533.3 607.3 640 610.5C746.7 613.7 853.3 587.3 960 580C1066.7 572.7 1173.3 584.3 1280 600.2C1386.7 616 1493.3 636 1600 651C1706.7 666 1813.3 676 1866.7 681L1920 686L1920 1081L1866.7 1081C1813.3 1081 1706.7 1081 1600 1081C1493.3 1081 1386.7 1081 1280 1081C1173.3 1081 1066.7 1081 960 1081C853.3 1081 746.7 1081 640 1081C533.3 1081 426.7 1081 320 1081C213.3 1081 106.7 1081 53.3 1081L0 1081Z" fill="#1bc264"></path><path d="M0 732L53.3 730.7C106.7 729.3 213.3 726.7 320 738.5C426.7 750.3 533.3 776.7 640 782.3C746.7 788 853.3 773 960 772.5C1066.7 772 1173.3 786 1280 771.7C1386.7 757.3 1493.3 714.7 1600 711.7C1706.7 708.7 1813.3 745.3 1866.7 763.7L1920 782L1920 1081L1866.7 1081C1813.3 1081 1706.7 1081 1600 1081C1493.3 1081 1386.7 1081 1280 1081C1173.3 1081 1066.7 1081 960 1081C853.3 1081 746.7 1081 640 1081C533.3 1081 426.7 1081 320 1081C213.3 1081 106.7 1081 53.3 1081L0 1081Z" fill="#17b95c"></path><path d="M0 795L53.3 787.2C106.7 779.3 213.3 763.7 320 762.5C426.7 761.3 533.3 774.7 640 772.2C746.7 769.7 853.3 751.3 960 747.5C1066.7 743.7 1173.3 754.3 1280 760C1386.7 765.7 1493.3 766.3 1600 772.8C1706.7 779.3 1813.3 791.7 1866.7 797.8L1920 804L1920 1081L1866.7 1081C1813.3 1081 1706.7 1081 1600 1081C1493.3 1081 1386.7 1081 1280 1081C1173.3 1081 1066.7 1081 960 1081C853.3 1081 746.7 1081 640 1081C533.3 1081 426.7 1081 320 1081C213.3 1081 106.7 1081 53.3 1081L0 1081Z" fill="#13b154"></path><path d="M0 869L53.3 882.2C106.7 895.3 213.3 921.7 320 933.3C426.7 945 533.3 942 640 936.3C746.7 930.7 853.3 922.3 960 907.8C1066.7 893.3 1173.3 872.7 1280 866.5C1386.7 860.3 1493.3 868.7 1600 874.2C1706.7 879.7 1813.3 882.3 1866.7 883.7L1920 885L1920 1081L1866.7 1081C1813.3 1081 1706.7 1081 1600 1081C1493.3 1081 1386.7 1081 1280 1081C1173.3 1081 1066.7 1081 960 1081C853.3 1081 746.7 1081 640 1081C533.3 1081 426.7 1081 320 1081C213.3 1081 106.7 1081 53.3 1081L0 1081Z" fill="#0ea84d"></path><path d="M0 925L53.3 938.7C106.7 952.3 213.3 979.7 320 987.7C426.7 995.7 533.3 984.3 640 973.7C746.7 963 853.3 953 960 958C1066.7 963 1173.3 983 1280 984.3C1386.7 985.7 1493.3 968.3 1600 955.3C1706.7 942.3 1813.3 933.7 1866.7 929.3L1920 925L1920 1081L1866.7 1081C1813.3 1081 1706.7 1081 1600 1081C1493.3 1081 1386.7 1081 1280 1081C1173.3 1081 1066.7 1081 960 1081C853.3 1081 746.7 1081 640 1081C533.3 1081 426.7 1081 320 1081C213.3 1081 106.7 1081 53.3 1081L0 1081Z" fill="#08a045"></path></svg>